<svg xmlns="http://www.w3.org/2000/svg" viewBox="0 0 512 512">
  <defs>
    <linearGradient id="bg" x1="0%" y1="0%" x2="100%" y2="100%">
      <stop offset="0%" style="stop-color:#818cf8"/>
      <stop offset="100%" style="stop-color:#6366f1"/>
    </linearGradient>
  </defs>
  
  <!-- Background -->
  <rect width="512" height="512" rx="96" fill="url(#bg)"/>
  
  <!-- Calculator body -->
  <rect x="96" y="64" width="320" height="384" rx="32" fill="#ffffff"/>
  
  <!-- Display screen -->
  <rect x="128" y="96" width="256" height="80" rx="16" fill="#1e293b"/>
  <text x="360" y="155" font-family="system-ui, sans-serif" font-size="48" font-weight="600" fill="#22c55e" text-anchor="end">₱815</text>
  
  <!-- Button grid -->
  <!-- Row 1 -->
  <rect x="128" y="200" width="56" height="48" rx="12" fill="#e7e5e4"/>
  <rect x="196" y="200" width="56" height="48" rx="12" fill="#e7e5e4"/>
  <rect x="264" y="200" width="56" height="48" rx="12" fill="#e7e5e4"/>
  <rect x="332" y="200" width="52" height="48" rx="12" fill="#ef4444"/>
  
  <!-- Row 2 -->
  <rect x="128" y="260" width="56" height="48" rx="12" fill="#f5f5f4"/>
  <rect x="196" y="260" width="56" height="48" rx="12" fill="#f5f5f4"/>
  <rect x="264" y="260" width="56" height="48" rx="12" fill="#f5f5f4"/>
  <rect x="332" y="260" width="52" height="48" rx="12" fill="#6366f1"/>
  
  <!-- Row 3 -->
  <rect x="128" y="320" width="56" height="48" rx="12" fill="#f5f5f4"/>
  <rect x="196" y="320" width="56" height="48" rx="12" fill="#f5f5f4"/>
  <rect x="264" y="320" width="56" height="48" rx="12" fill="#f5f5f4"/>
  <rect x="332" y="320" width="52" height="48" rx="12" fill="#6366f1"/>
  
  <!-- Row 4 -->
  <rect x="128" y="380" width="56" height="48" rx="12" fill="#f5f5f4"/>
  <rect x="196" y="380" width="124" height="48" rx="12" fill="#f5f5f4"/>
  <rect x="332" y="380" width="52" height="48" rx="12" fill="#22c55e"/>
  
  <!-- Button labels -->
  <text x="156" y="232" font-family="system-ui, sans-serif" font-size="20" font-weight="500" fill="#6b7280" text-anchor="middle">C</text>
  <text x="224" y="232" font-family="system-ui, sans-serif" font-size="20" font-weight="500" fill="#6b7280" text-anchor="middle">±</text>
  <text x="292" y="232" font-family="system-ui, sans-serif" font-size="20" font-weight="500" fill="#6b7280" text-anchor="middle">%</text>
  <text x="358" y="232" font-family="system-ui, sans-serif" font-size="20" font-weight="600" fill="#ffffff" text-anchor="middle">÷</text>
  
  <text x="156" y="292" font-family="system-ui, sans-serif" font-size="20" font-weight="500" fill="#1e293b" text-anchor="middle">7</text>
  <text x="224" y="292" font-family="system-ui, sans-serif" font-size="20" font-weight="500" fill="#1e293b" text-anchor="middle">8</text>
  <text x="292" y="292" font-family="system-ui, sans-serif" font-size="20" font-weight="500" fill="#1e293b" text-anchor="middle">9</text>
  <text x="358" y="292" font-family="system-ui, sans-serif" font-size="20" font-weight="600" fill="#ffffff" text-anchor="middle">×</text>
  
  <text x="156" y="352" font-family="system-ui, sans-serif" font-size="20" font-weight="500" fill="#1e293b" text-anchor="middle">4</text>
  <text x="224" y="352" font-family="system-ui, sans-serif" font-size="20" font-weight="500" fill="#1e293b" text-anchor="middle">5</text>
  <text x="292" y="352" font-family="system-ui, sans-serif" font-size="20" font-weight="500" fill="#1e293b" text-anchor="middle">6</text>
  <text x="358" y="352" font-family="system-ui, sans-serif" font-size="20" font-weight="600" fill="#ffffff" text-anchor="middle">−</text>
  
  <text x="156" y="412" font-family="system-ui, sans-serif" font-size="20" font-weight="500" fill="#1e293b" text-anchor="middle">1</text>
  <text x="258" y="412" font-family="system-ui, sans-serif" font-size="20" font-weight="500" fill="#1e293b" text-anchor="middle">0</text>
  <text x="358" y="412" font-family="system-ui, sans-serif" font-size="20" font-weight="600" fill="#ffffff" text-anchor="middle">=</text>
</svg>
